# xmcd CD database file
#
# Track frame offsets:
#	180
#	16840
#	34225
#	51962
#	67447
#	84640
#	100615
#	118538
#	135478
#	154400
#	184360
#	201738
#	219868
#
# Disc length: 3165 seconds
#
# Revision: 0
# Processed by: cddbd v1.5.2PL0 Copyright (c) Steve Scherf et al.
# Submitted via: CDex 1.51
#
DISCID=c00c5b0d
DTITLE=Various Artist - DisCover - Dance DiskCOVERy
DYEAR=1996
DGENRE=90's
TTITLE0=Beat System - Fresh
TTITLE1=Heavy O - Da Groove
TTITLE2=Blaxone - Good Times
TTITLE3=7T - Ladies Night (feat. Kool and the Gang, J.T. and Takia)
TTITLE4=Ex-It - Night Fever
TTITLE5=B.G. the Prince of Rap - Stomp
TTITLE6=Restless - A Horse with No Name
TTITLE7=Chameleon - The Way it is
TTITLE8=Cut 'n' Move - Missionary Man
TTITLE9=Firemaster - Mad World
TTITLE10=Nightlife Posse - Shake Your Booty
TTITLE11=Paname Sound - Joy and Pain (Les Joies, Les Peines)
TTITLE12=Ricky Ricardo - Hit the Road Jack
EXTD=YEAR: 1996
EXTT0=
EXTT1=
EXTT2=
EXTT3=
EXTT4=
EXTT5=
EXTT6=
EXTT7=
EXTT8=
EXTT9=
EXTT10=
EXTT11=
EXTT12=
PLAYORDER=
